<?xml version="1.0" standalone="no"?>
<!DOCTYPE svg PUBLIC "-//W3C//DTD SVG 20010904//EN"
 "http://www.w3.org/TR/2001/REC-SVG-20010904/DTD/svg10.dtd">
<svg version="1.0" xmlns="http://www.w3.org/2000/svg"
 width="324.000000pt" height="323.000000pt" viewBox="0 0 324.000000 323.000000"
 preserveAspectRatio="xMidYMid meet">
<metadata>
Created by potrace 1.16, written by Peter Selinger 2001-2019
</metadata>
<g transform="translate(0.000000,323.000000) scale(0.100000,-0.100000)"
fill="#000000" stroke="none">
<path d="M1430 3214 c-617 -77 -1143 -502 -1336 -1079 -66 -198 -78 -275 -78
-520 0 -192 2 -233 22 -322 48 -218 124 -399 244 -580 93 -140 293 -342 427
-431 107 -72 281 -159 391 -196 405 -136 869 -102 1247 90 427 218 733 609
839 1074 82 360 42 726 -117 1060 -81 171 -166 289 -313 436 -238 237 -489
375 -813 445 -75 16 -142 21 -288 24 -104 2 -206 1 -225 -1z m237 -395 c42
-15 1021 -995 1044 -1044 48 -103 0 -227 -106 -276 -28 -13 -64 -19 -122 -19
l-82 0 -3 -377 c-3 -429 -3 -428 -81 -464 -40 -18 -75 -19 -702 -19 -736 0
-704 -3 -752 69 -23 34 -23 36 -23 411 l0 378 -100 4 c-91 3 -103 6 -142 34
-84 59 -118 179 -75 261 22 42 1009 1024 1045 1040 34 15 63 16 99 2z"/>
<path d="M1223 2129 c-216 -216 -393 -393 -393 -395 0 -2 61 -4 135 -4 l135 0
0 -425 0 -425 520 0 520 0 0 425 0 425 137 0 138 0 -395 395 c-217 217 -397
395 -400 395 -3 0 -182 -176 -397 -391z"/>
</g>
</svg>
